<svg id="car1" xmlns="http://www.w3.org/2000/svg" viewBox="0 0 30 61"><defs><style>.cls-1{fill:#231f20;}.cls-2{fill:#00aeef;}.cls-3{fill:#58595b;}.cls-4{fill:#808285;}.cls-5{fill:#fff28b;}.cls-6{fill:#ef4136;}</style></defs><title>car</title><rect id="car1-window" class="cls-1" x="2.09" y="10" width="25.82" height="41.18"/><path id="car1-color" class="cls-2" d="M119,55.37l.39-15a8.12,8.12,0,0,0-.14-1.5,6.47,6.47,0,0,0-.24-.89l0-.11h0a8,8,0,0,0-3.89-3.64.84.84,0,0,1-.79.59h-2.5a.84.84,0,0,1-.83-.84.73.73,0,0,1,.14-.45H97.73a.73.73,0,0,1,.14.45.84.84,0,0,1-.83.84h-2.5a.85.85,0,0,1-.79-.59,8,8,0,0,0-3.89,3.64h0l0,.11a6.47,6.47,0,0,0-.24.89,8.12,8.12,0,0,0-.14,1.5l.39,15-.1,26.07-.29,5.23c0,.16,0,.32,0,.48a.59.59,0,0,0,0,.13,5.78,5.78,0,0,0,4.49,5,.19.19,0,0,1,0-.08.7.7,0,0,1,.7-.7h2.73a.7.7,0,0,1,.7.7.59.59,0,0,1,0,.23h12.78a.59.59,0,0,1,0-.23.7.7,0,0,1,.7-.7h2.73a.7.7,0,0,1,.7.7.19.19,0,0,1,0,.08,5.78,5.78,0,0,0,4.49-5,.59.59,0,0,0,0-.13c0-.16,0-.32,0-.48l-.29-5.23ZM104.43,42.48c11,0,12.48,2.76,12.48,2.76l-3.06,7.82a28.32,28.32,0,0,0-9.29-1.51h-.26A28.32,28.32,0,0,0,95,53.06L92,45.24S93.46,42.48,104.43,42.48Zm-12.91,5,2.8,5.72V64l-2.8,1.29Zm0,19,2.8-1.6V77.58l-2.8,1.77Zm12.91,17.24c-8.31,0-12.91-2-12.91-2L95,78.22a42.15,42.15,0,0,0,9.42.79,42.15,42.15,0,0,0,9.42-.79l3.49,3.46S112.74,83.66,104.43,83.68Zm12.91-4.33-2.8-1.77V64.84l2.8,1.6Zm0-14.07L114.54,64V53.17l2.8-5.72Z" transform="translate(-89.43 -32.48)"/><g id="car1-bump"><path id="rear-bumper" class="cls-3" d="M119.41,87.28c-.25,3.48-2.75,6.2-5.79,6.2H95.24c-3,0-5.54-2.72-5.79-6.2h0a5.78,5.78,0,0,0,4.49,5,.69.69,0,0,0,.69.62h2.73a.7.7,0,0,0,.66-.47h12.78a.7.7,0,0,0,.66.47h2.73a.69.69,0,0,0,.69-.62,5.78,5.78,0,0,0,4.49-5Z" transform="translate(-89.43 -32.48)"/><path id="front-bumper" class="cls-4" d="M111.59,32.48H97.27a7.84,7.84,0,0,0-7.43,5.34h0a8,8,0,0,1,3.89-3.64.85.85,0,0,0,.79.59H97a.84.84,0,0,0,.83-.84.73.73,0,0,0-.14-.45h13.4a.73.73,0,0,0-.14.45.84.84,0,0,0,.83.84h2.5a.84.84,0,0,0,.79-.59A8,8,0,0,1,119,37.82h0A7.84,7.84,0,0,0,111.59,32.48ZM97.77,33.93a.74.74,0,0,1-.73.74h-2.5a.73.73,0,0,1-.68-.48,8,8,0,0,1,3.21-.66h.58A.7.7,0,0,1,97.77,33.93Zm16.55.74h-2.5a.74.74,0,0,1-.73-.74.7.7,0,0,1,.12-.4h.58a8,8,0,0,1,3.21.66A.73.73,0,0,1,114.32,34.67Z" transform="translate(-89.43 -32.48)"/><path id="left-head-light" class="cls-5" d="M97.77,33.93a.74.74,0,0,1-.73.74h-2.5a.73.73,0,0,1-.68-.48,8,8,0,0,1,3.21-.66h.58A.7.7,0,0,1,97.77,33.93Z" transform="translate(-89.43 -32.48)"/><path id="right-head-light" class="cls-5" d="M115,34.19a.73.73,0,0,1-.68.48h-2.5a.74.74,0,0,1-.73-.74.7.7,0,0,1,.12-.4h.58A8,8,0,0,1,115,34.19Z" transform="translate(-89.43 -32.48)"/><path id="right-tail-light" class="cls-6" d="M114.94,92.25a.28.28,0,0,1,0,.1.82.82,0,0,1-.78.8h-3.07a.81.81,0,0,1-.74-.61.88.88,0,0,1,0-.29.85.85,0,0,1,.78-.9h3.07A.85.85,0,0,1,114.94,92.25Z" transform="translate(-89.43 -32.48)"/><path id="left-tail-light" class="cls-6" d="M98.57,92.25a.28.28,0,0,1,0,.1.82.82,0,0,1-.77.8H94.72a.82.82,0,0,1-.75-.61.88.88,0,0,1,0-.29.85.85,0,0,1,.79-.9h3.07A.85.85,0,0,1,98.57,92.25Z" transform="translate(-89.43 -32.48)"/></g></svg>