<svg id="car1" xmlns="http://www.w3.org/2000/svg" viewBox="0 0 30 61"><defs><style>.cls-1{fill:#58595b;}.cls-2{fill:#fff200;}.cls-3{fill:#2b2b2b;}.cls-4{fill:#ef4136;}.cls-5{fill:#fff28b;}.cls-6{fill:#231f20;}.cls-7{fill:#808285;}.cls-8{fill:#fd0;}.cls-9{fill:#73640a;}</style></defs><title>car1</title><path class="cls-1" d="M54.16,91.53v1H45c-3,0-5.54-2.72-5.79-6.2h0a5.78,5.78,0,0,0,4.49,5,.19.19,0,0,1,0-.08.7.7,0,0,1,.7-.7h2.73a.7.7,0,0,1,.7.7.59.59,0,0,1,0,.23Z" transform="translate(-39.16 -31.53)"/><path class="cls-2" d="M47.46,32.53H46.8a8.07,8.07,0,0,0-3.27.68l-.05,0a.85.85,0,0,0,.79.59h2.5A.84.84,0,0,0,47.6,33,.73.73,0,0,0,47.46,32.53Z" transform="translate(-39.16 -31.53)"/><path class="cls-2" d="M47.81,91.3a.59.59,0,0,1,0,.23H45a5.4,5.4,0,0,1-1.28-.15.19.19,0,0,1,0-.08.7.7,0,0,1,.7-.7h2.73A.7.7,0,0,1,47.81,91.3Z" transform="translate(-39.16 -31.53)"/><polygon class="cls-2" points="4.89 20.69 4.89 31.51 2.09 32.8 2.09 14.97 4.89 20.69"/><polygon class="cls-2" points="4.89 32.36 4.89 45.1 2.09 46.87 2.09 33.96 4.89 32.36"/><polygon class="cls-3" points="4.89 20.69 4.89 31.51 2.09 32.8 2.09 14.97 4.89 20.69"/><polygon class="cls-3" points="4.89 32.36 4.89 45.1 2.09 46.87 2.09 33.96 4.89 32.36"/><path class="cls-4" d="M47.81,91.3a.59.59,0,0,1,0,.23.7.7,0,0,1-.66.47H44.38a.69.69,0,0,1-.69-.62.19.19,0,0,1,0-.08.7.7,0,0,1,.7-.7h2.73A.7.7,0,0,1,47.81,91.3Z" transform="translate(-39.16 -31.53)"/><path class="cls-2" d="M34.88,43.56Z" transform="translate(-39.16 -31.53)"/><path class="cls-5" d="M43.53,33.21a.77.77,0,0,0,.74.56h2.5a.79.79,0,0,0,.78-.79.77.77,0,0,0-.14-.45H46.8A8.07,8.07,0,0,0,43.53,33.21Z" transform="translate(-39.16 -31.53)"/><path class="cls-6" d="M47.46,32.53a0,0,0,0,0,0,0v0H46.8a8.18,8.18,0,0,0-3.29.68l0,0v0h0a.85.85,0,0,0,.79.59h2.5A.84.84,0,0,0,47.6,33,.73.73,0,0,0,47.46,32.53Zm-.69,1.19h-2.5a.73.73,0,0,1-.68-.48,8,8,0,0,1,3.21-.66h.58a.7.7,0,0,1,.12.4A.74.74,0,0,1,46.77,33.72Z" transform="translate(-39.16 -31.53)"/><path class="cls-7" d="M54.16,31.53v1H46.8a8.07,8.07,0,0,0-3.27.68l-.05,0a8,8,0,0,0-3.89,3.64h0A7.84,7.84,0,0,1,47,31.53Z" transform="translate(-39.16 -31.53)"/><path class="cls-1" d="M69.14,86.33c-.25,3.48-2.75,6.2-5.79,6.2H54.16v-1h6.39a.59.59,0,0,1,0-.23.7.7,0,0,1,.7-.7h2.73a.7.7,0,0,1,.7.7.19.19,0,0,1,0,.08,5.78,5.78,0,0,0,4.49-5Z" transform="translate(-39.16 -31.53)"/><path class="cls-2" d="M64.79,33.21a8.07,8.07,0,0,0-3.27-.68h-.66a.73.73,0,0,0-.14.45.84.84,0,0,0,.83.84h2.5a.84.84,0,0,0,.79-.59Z" transform="translate(-39.16 -31.53)"/><path class="cls-2" d="M68.77,54.42l.39-15.05a8.12,8.12,0,0,0-.14-1.5,6.47,6.47,0,0,0-.24-.89l0-.11h0a8,8,0,0,0-3.89-3.64.84.84,0,0,1-.79.59h-2.5a.84.84,0,0,1-.83-.84.73.73,0,0,1,.14-.45H47.46a.73.73,0,0,1,.14.45.84.84,0,0,1-.83.84h-2.5a.85.85,0,0,1-.79-.59,8,8,0,0,0-3.89,3.64h0l0,.11a6.47,6.47,0,0,0-.24.89,8.12,8.12,0,0,0-.14,1.5l.39,15.05-.1,26.07-.29,5.23c0,.16,0,.32,0,.48a.59.59,0,0,0,0,.13,5.78,5.78,0,0,0,4.49,5,.19.19,0,0,1,0-.08.7.7,0,0,1,.7-.7h2.73a.7.7,0,0,1,.7.7.59.59,0,0,1,0,.23H60.55a.59.59,0,0,1,0-.23.7.7,0,0,1,.7-.7h2.73a.7.7,0,0,1,.7.7.19.19,0,0,1,0,.08,5.78,5.78,0,0,0,4.49-5,.59.59,0,0,0,0-.13c0-.16,0-.32,0-.48l-.29-5.23ZM41.25,46.5l2.8,5.72V63l-2.8,1.29Zm0,19,2.8-1.6V76.63l-2.8,1.77ZM54.16,82.73c-8.31,0-12.91-2-12.91-2l3.49-3.46V52.11l-3.06-7.82s1.51-2.76,12.48-2.76,12.48,2.76,12.48,2.76l-3.06,7.82V77.27l3.49,3.46S62.47,82.71,54.16,82.73ZM67.07,78.4l-2.8-1.77V63.89l2.8,1.6Zm0-14.07L64.27,63V52.22l2.8-5.72Z" transform="translate(-39.16 -31.53)"/><path class="cls-3" d="M67.07,80.73s-4.6,2-12.91,2-12.91-2-12.91-2l3.49-3.46a42.15,42.15,0,0,0,9.42.79,42.15,42.15,0,0,0,9.42-.79Z" transform="translate(-39.16 -31.53)"/><path class="cls-2" d="M64.64,91.3a.19.19,0,0,1,0,.08,5.4,5.4,0,0,1-1.28.15h-2.8a.59.59,0,0,1,0-.23.7.7,0,0,1,.7-.7h2.73A.7.7,0,0,1,64.64,91.3Z" transform="translate(-39.16 -31.53)"/><polygon class="cls-2" points="27.91 14.97 27.91 32.8 25.11 31.51 25.11 20.69 27.91 14.97"/><polygon class="cls-2" points="27.91 33.96 27.91 46.87 25.11 45.1 25.11 32.36 27.91 33.96"/><path class="cls-3" d="M66.64,44.29l-3.06,7.82a28.32,28.32,0,0,0-9.29-1.51H54a28.32,28.32,0,0,0-9.29,1.51l-3.06-7.82s1.51-2.76,12.48-2.76S66.64,44.29,66.64,44.29Z" transform="translate(-39.16 -31.53)"/><polygon class="cls-3" points="27.91 14.97 27.91 32.8 25.11 31.51 25.11 20.69 27.91 14.97"/><polygon class="cls-3" points="27.91 33.96 27.91 46.87 25.11 45.1 25.11 32.36 27.91 33.96"/><g id="car-color"><path class="cls-8" d="M54.29,50.6H54a28.32,28.32,0,0,0-9.29,1.51V77.27a42.15,42.15,0,0,0,9.42.79,42.15,42.15,0,0,0,9.42-.79V52.11A28.32,28.32,0,0,0,54.29,50.6Zm9.19,26.59a44,44,0,0,1-9.32.77,44,44,0,0,1-9.32-.77v-25A28.83,28.83,0,0,1,54,50.7h.26a28.83,28.83,0,0,1,9.19,1.48Z" transform="translate(-39.16 -31.53)"/><path class="cls-9" d="M54.29,50.6H54a28.32,28.32,0,0,0-9.29,1.51V77.27a42.15,42.15,0,0,0,9.42.79,42.15,42.15,0,0,0,9.42-.79V52.11A28.32,28.32,0,0,0,54.29,50.6Zm9.19,26.59a44,44,0,0,1-9.32.77,44,44,0,0,1-9.32-.77v-25A28.83,28.83,0,0,1,54,50.7h.26a28.83,28.83,0,0,1,9.19,1.48Z" transform="translate(-39.16 -31.53)"/><path class="cls-2" d="M63.48,52.18v25a44,44,0,0,1-9.32.77,44,44,0,0,1-9.32-.77v-25A28.83,28.83,0,0,1,54,50.7h.26A28.83,28.83,0,0,1,63.48,52.18Z" transform="translate(-39.16 -31.53)"/></g><path class="cls-4" d="M64.64,91.3a.19.19,0,0,1,0,.08.69.69,0,0,1-.69.62H61.21a.7.7,0,0,1-.66-.47.59.59,0,0,1,0-.23.7.7,0,0,1,.7-.7h2.73A.7.7,0,0,1,64.64,91.3Z" transform="translate(-39.16 -31.53)"/><path class="cls-2" d="M73.44,43.56Z" transform="translate(-39.16 -31.53)"/><path class="cls-5" d="M64.79,33.21a.77.77,0,0,1-.74.56h-2.5a.79.79,0,0,1-.78-.79.77.77,0,0,1,.14-.45h.61A8.07,8.07,0,0,1,64.79,33.21Z" transform="translate(-39.16 -31.53)"/><path class="cls-6" d="M64.81,33.16a8.18,8.18,0,0,0-3.29-.68h-.64v0a0,0,0,0,0,0,0,.73.73,0,0,0-.14.45.84.84,0,0,0,.83.84h2.5a.84.84,0,0,0,.79-.59h0v0Zm-.76.56h-2.5a.74.74,0,0,1-.73-.74.7.7,0,0,1,.12-.4h.58a8,8,0,0,1,3.21.66A.73.73,0,0,1,64.05,33.72Z" transform="translate(-39.16 -31.53)"/><path class="cls-7" d="M68.75,36.87h0a8,8,0,0,0-3.89-3.64l0,0a8.07,8.07,0,0,0-3.27-.68H54.16v-1h7.16A7.84,7.84,0,0,1,68.75,36.87Z" transform="translate(-39.16 -31.53)"/></svg>